<svg xmlns="http://www.w3.org/2000/svg" viewBox="0 0 64 64" width="64" height="64">
  <defs>
    <!-- Glow filter — warm orange -->
    <filter id="glow" x="-25%" y="-25%" width="150%" height="150%">
      <feGaussianBlur in="SourceGraphic" stdDeviation="1.8" result="blur"/>
      <feColorMatrix in="blur" type="matrix"
        values="0 0 0 0 1  0 0 0 0 0.42  0 0 0 0 0  0 0 0 0.4 0" result="warm"/>
      <feMerge>
        <feMergeNode in="warm"/>
        <feMergeNode in="SourceGraphic"/>
      </feMerge>
    </filter>

    <!-- Orange lego block — 3D -->
    <symbol id="b" viewBox="0 0 5 5" overflow="visible">
      <rect y="0.3" width="4.8" height="4.9" rx="0.55" fill="#331500" opacity="0.6"/>
      <rect width="4.8" height="4.8" rx="0.55" fill="#FF6B00"/>
      <rect width="4.8" height="0.6" rx="0.55" fill="#FFAA44" opacity="0.5"/>
      <rect y="0.6" width="4.8" height="0.5" rx="0.3" fill="#FF8833" opacity="0.3"/>
      <rect y="4.0" width="4.8" height="0.8" rx="0.4" fill="#993300" opacity="0.35"/>
      <circle cx="2.4" cy="2.55" r="1.15" fill="#DD5500"/>
      <circle cx="2.4" cy="2.55" r="1.15" fill="none" stroke="rgba(255,200,100,0.3)" stroke-width="0.3"/>
      <circle cx="2.0" cy="2.15" r="0.4" fill="#FFCC88" opacity="0.55"/>
    </symbol>

    <!-- Amber lego block — energy bar -->
    <symbol id="c" viewBox="0 0 5 5" overflow="visible">
      <rect y="0.3" width="4.8" height="4.9" rx="0.55" fill="#4D3000" opacity="0.6"/>
      <rect width="4.8" height="4.8" rx="0.55" fill="#FFAA00"/>
      <rect width="4.8" height="0.6" rx="0.55" fill="#FFDD66" opacity="0.55"/>
      <rect y="0.6" width="4.8" height="0.5" rx="0.3" fill="#FFBB33" opacity="0.3"/>
      <rect y="4.0" width="4.8" height="0.8" rx="0.4" fill="#996600" opacity="0.3"/>
      <circle cx="2.4" cy="2.55" r="1.15" fill="#DD8800"/>
      <circle cx="2.4" cy="2.55" r="1.15" fill="none" stroke="rgba(255,230,150,0.35)" stroke-width="0.3"/>
      <circle cx="2.0" cy="2.15" r="0.4" fill="#FFEE99" opacity="0.6"/>
    </symbol>
  </defs>

  <!-- Dark background with warm border -->
  <rect width="64" height="64" rx="12" fill="#0D0D0D"/>
  <rect x="0.5" y="0.5" width="63" height="63" rx="11.5" fill="none" stroke="#FF6B00" stroke-width="0.6" opacity="0.25"/>

  <!-- Lightning bolt with glow -->
  <g filter="url(#glow)">
    <!-- Top diagonal — orange -->
    <use href="#b" x="38" y="2"  width="5" height="5"/>
    <use href="#b" x="44" y="2"  width="5" height="5"/>
    <use href="#b" x="32" y="8"  width="5" height="5"/>
    <use href="#b" x="38" y="8"  width="5" height="5"/>
    <use href="#b" x="26" y="14" width="5" height="5"/>
    <use href="#b" x="32" y="14" width="5" height="5"/>
    <use href="#b" x="20" y="20" width="5" height="5"/>
    <use href="#b" x="26" y="20" width="5" height="5"/>

    <!-- Amber energy bar -->
    <use href="#c" x="8"  y="26" width="5" height="5"/>
    <use href="#c" x="14" y="26" width="5" height="5"/>
    <use href="#c" x="20" y="26" width="5" height="5"/>
    <use href="#c" x="26" y="26" width="5" height="5"/>
    <use href="#c" x="32" y="26" width="5" height="5"/>
    <use href="#c" x="38" y="26" width="5" height="5"/>
    <use href="#c" x="44" y="26" width="5" height="5"/>
    <use href="#c" x="50" y="26" width="5" height="5"/>

    <!-- Bottom diagonal — orange -->
    <use href="#b" x="38" y="32" width="5" height="5"/>
    <use href="#b" x="44" y="32" width="5" height="5"/>
    <use href="#b" x="32" y="38" width="5" height="5"/>
    <use href="#b" x="38" y="38" width="5" height="5"/>
    <use href="#b" x="26" y="44" width="5" height="5"/>
    <use href="#b" x="32" y="44" width="5" height="5"/>
    <use href="#b" x="20" y="50" width="5" height="5"/>
    <use href="#b" x="26" y="50" width="5" height="5"/>
    <use href="#b" x="14" y="56" width="5" height="5"/>
    <use href="#b" x="20" y="56" width="5" height="5"/>
  </g>
</svg>
